<mxfile host="Electron" agent="Mozilla/5.0 (Windows NT 10.0; Win64; x64) AppleWebKit/537.36 (KHTML, like Gecko) draw.io/24.7.17 Chrome/128.0.6613.36 Electron/32.0.1 Safari/537.36" version="24.7.17">
  <diagram name="Page-1" id="m58ENNIVbCGZAOOv3ni-">
    <mxGraphModel dx="1036" dy="606" grid="1" gridSize="10" guides="1" tooltips="1" connect="1" arrows="1" fold="1" page="1" pageScale="1" pageWidth="827" pageHeight="1169" math="0" shadow="0">
      <root>
        <mxCell id="0" />
        <mxCell id="1" parent="0" />
        <mxCell id="6OsVVCS7oPgb1nGs9ToB-1" value="0/5/6" style="text;html=1;align=center;verticalAlign=middle;whiteSpace=wrap;rounded=0;" parent="1" vertex="1">
          <mxGeometry x="60" y="70" width="60" height="20" as="geometry" />
        </mxCell>
        <mxCell id="6OsVVCS7oPgb1nGs9ToB-3" value="1/6/7" style="text;html=1;align=center;verticalAlign=middle;whiteSpace=wrap;rounded=0;" parent="1" vertex="1">
          <mxGeometry x="60" y="110" width="60" height="20" as="geometry" />
        </mxCell>
        <mxCell id="6OsVVCS7oPgb1nGs9ToB-4" value="2/7/8" style="text;html=1;align=center;verticalAlign=middle;whiteSpace=wrap;rounded=0;" parent="1" vertex="1">
          <mxGeometry x="60" y="150" width="60" height="20" as="geometry" />
        </mxCell>
        <mxCell id="6OsVVCS7oPgb1nGs9ToB-6" value="3/8/9" style="text;html=1;align=center;verticalAlign=middle;whiteSpace=wrap;rounded=0;" parent="1" vertex="1">
          <mxGeometry x="60" y="190" width="60" height="20" as="geometry" />
        </mxCell>
        <mxCell id="6OsVVCS7oPgb1nGs9ToB-7" value="4/9/10" style="text;html=1;align=center;verticalAlign=middle;whiteSpace=wrap;rounded=0;" parent="1" vertex="1">
          <mxGeometry x="60" y="230" width="60" height="20" as="geometry" />
        </mxCell>
        <mxCell id="6OsVVCS7oPgb1nGs9ToB-8" value="5/10/11" style="text;html=1;align=center;verticalAlign=middle;whiteSpace=wrap;rounded=0;" parent="1" vertex="1">
          <mxGeometry x="60" y="270" width="60" height="20" as="geometry" />
        </mxCell>
        <mxCell id="6OsVVCS7oPgb1nGs9ToB-9" value="6/11/12" style="text;html=1;align=center;verticalAlign=middle;whiteSpace=wrap;rounded=0;" parent="1" vertex="1">
          <mxGeometry x="60" y="310" width="60" height="20" as="geometry" />
        </mxCell>
        <mxCell id="6OsVVCS7oPgb1nGs9ToB-10" value="7/12/13" style="text;html=1;align=center;verticalAlign=middle;whiteSpace=wrap;rounded=0;" parent="1" vertex="1">
          <mxGeometry x="60" y="350" width="60" height="20" as="geometry" />
        </mxCell>
        <mxCell id="6OsVVCS7oPgb1nGs9ToB-11" value="8/1/14" style="text;html=1;align=center;verticalAlign=middle;whiteSpace=wrap;rounded=0;" parent="1" vertex="1">
          <mxGeometry x="60" y="390" width="60" height="20" as="geometry" />
        </mxCell>
        <mxCell id="6OsVVCS7oPgb1nGs9ToB-12" value="9/2/15" style="text;html=1;align=center;verticalAlign=middle;whiteSpace=wrap;rounded=0;" parent="1" vertex="1">
          <mxGeometry x="60" y="430" width="60" height="20" as="geometry" />
        </mxCell>
        <mxCell id="6OsVVCS7oPgb1nGs9ToB-13" value="10/3/16" style="text;html=1;align=center;verticalAlign=middle;whiteSpace=wrap;rounded=0;" parent="1" vertex="1">
          <mxGeometry x="60" y="470" width="60" height="20" as="geometry" />
        </mxCell>
        <mxCell id="6OsVVCS7oPgb1nGs9ToB-14" value="11/4/17" style="text;html=1;align=center;verticalAlign=middle;whiteSpace=wrap;rounded=0;" parent="1" vertex="1">
          <mxGeometry x="60" y="510" width="60" height="20" as="geometry" />
        </mxCell>
        <mxCell id="6OsVVCS7oPgb1nGs9ToB-15" value="12/5/18" style="text;html=1;align=center;verticalAlign=middle;whiteSpace=wrap;rounded=0;" parent="1" vertex="1">
          <mxGeometry x="60" y="550" width="60" height="20" as="geometry" />
        </mxCell>
        <mxCell id="6OsVVCS7oPgb1nGs9ToB-16" value="1/6/19" style="text;html=1;align=center;verticalAlign=middle;whiteSpace=wrap;rounded=0;" parent="1" vertex="1">
          <mxGeometry x="60" y="590" width="60" height="20" as="geometry" />
        </mxCell>
        <mxCell id="6OsVVCS7oPgb1nGs9ToB-17" value="2/7/20" style="text;html=1;align=center;verticalAlign=middle;whiteSpace=wrap;rounded=0;" parent="1" vertex="1">
          <mxGeometry x="60" y="630" width="60" height="20" as="geometry" />
        </mxCell>
        <mxCell id="6OsVVCS7oPgb1nGs9ToB-18" value="3/8/21" style="text;html=1;align=center;verticalAlign=middle;whiteSpace=wrap;rounded=0;" parent="1" vertex="1">
          <mxGeometry x="60" y="670" width="60" height="20" as="geometry" />
        </mxCell>
        <mxCell id="6OsVVCS7oPgb1nGs9ToB-19" value="4/9/22" style="text;html=1;align=center;verticalAlign=middle;whiteSpace=wrap;rounded=0;" parent="1" vertex="1">
          <mxGeometry x="60" y="710" width="60" height="20" as="geometry" />
        </mxCell>
        <mxCell id="6OsVVCS7oPgb1nGs9ToB-20" value="5/10/23" style="text;html=1;align=center;verticalAlign=middle;whiteSpace=wrap;rounded=0;" parent="1" vertex="1">
          <mxGeometry x="60" y="750" width="60" height="20" as="geometry" />
        </mxCell>
        <mxCell id="6OsVVCS7oPgb1nGs9ToB-21" value="6/11/24" style="text;html=1;align=center;verticalAlign=middle;whiteSpace=wrap;rounded=0;" parent="1" vertex="1">
          <mxGeometry x="60" y="790" width="60" height="20" as="geometry" />
        </mxCell>
        <mxCell id="6OsVVCS7oPgb1nGs9ToB-26" value="7/12/1" style="text;html=1;align=center;verticalAlign=middle;whiteSpace=wrap;rounded=0;" parent="1" vertex="1">
          <mxGeometry x="60" y="830" width="60" height="20" as="geometry" />
        </mxCell>
        <mxCell id="6OsVVCS7oPgb1nGs9ToB-27" value="8/1/2" style="text;html=1;align=center;verticalAlign=middle;whiteSpace=wrap;rounded=0;" parent="1" vertex="1">
          <mxGeometry x="60" y="870" width="60" height="20" as="geometry" />
        </mxCell>
        <mxCell id="6OsVVCS7oPgb1nGs9ToB-28" value="9/2/3" style="text;html=1;align=center;verticalAlign=middle;whiteSpace=wrap;rounded=0;" parent="1" vertex="1">
          <mxGeometry x="60" y="910" width="60" height="20" as="geometry" />
        </mxCell>
        <mxCell id="6OsVVCS7oPgb1nGs9ToB-29" value="10/3/4" style="text;html=1;align=center;verticalAlign=middle;whiteSpace=wrap;rounded=0;" parent="1" vertex="1">
          <mxGeometry x="60" y="950" width="60" height="20" as="geometry" />
        </mxCell>
        <mxCell id="6OsVVCS7oPgb1nGs9ToB-30" value="11/4/5" style="text;html=1;align=center;verticalAlign=middle;whiteSpace=wrap;rounded=0;" parent="1" vertex="1">
          <mxGeometry x="60" y="990" width="60" height="20" as="geometry" />
        </mxCell>
        <mxCell id="6OsVVCS7oPgb1nGs9ToB-31" value="" style="rounded=0;whiteSpace=wrap;html=1;fillColor=#ffe6cc;strokeColor=#d79b00;" parent="1" vertex="1">
          <mxGeometry x="160" y="80" width="40" height="400" as="geometry" />
        </mxCell>
        <mxCell id="6OsVVCS7oPgb1nGs9ToB-33" value="" style="rounded=0;whiteSpace=wrap;html=1;fillColor=#ffe6cc;strokeColor=#d79b00;" parent="1" vertex="1">
          <mxGeometry x="120" y="720" width="40" height="320" as="geometry" />
        </mxCell>
        <mxCell id="6OsVVCS7oPgb1nGs9ToB-34" value="Kraft Working" style="text;html=1;align=center;verticalAlign=middle;whiteSpace=wrap;rounded=0;" parent="1" vertex="1">
          <mxGeometry x="120" y="40" width="80" height="40" as="geometry" />
        </mxCell>
        <mxCell id="6OsVVCS7oPgb1nGs9ToB-36" value="" style="rounded=0;whiteSpace=wrap;html=1;fillColor=#dae8fc;strokeColor=#6c8ebf;" parent="1" vertex="1">
          <mxGeometry x="240" y="80" width="40" height="450" as="geometry" />
        </mxCell>
        <mxCell id="6OsVVCS7oPgb1nGs9ToB-38" value="" style="rounded=0;whiteSpace=wrap;html=1;fillColor=#dae8fc;strokeColor=#6c8ebf;" parent="1" vertex="1">
          <mxGeometry x="200" y="760" width="40" height="280" as="geometry" />
        </mxCell>
        <mxCell id="6OsVVCS7oPgb1nGs9ToB-40" value="Monday" style="text;html=1;align=center;verticalAlign=middle;whiteSpace=wrap;rounded=0;" parent="1" vertex="1">
          <mxGeometry x="280" y="40" width="120" height="40" as="geometry" />
        </mxCell>
        <mxCell id="6OsVVCS7oPgb1nGs9ToB-41" value="" style="rounded=0;whiteSpace=wrap;html=1;fillColor=#d5e8d4;strokeColor=#82b366;" parent="1" vertex="1">
          <mxGeometry x="320" y="710" width="40" height="170" as="geometry" />
        </mxCell>
        <mxCell id="6OsVVCS7oPgb1nGs9ToB-42" value="12/5/6" style="text;html=1;align=center;verticalAlign=middle;whiteSpace=wrap;rounded=0;" parent="1" vertex="1">
          <mxGeometry x="60" y="1030" width="60" height="20" as="geometry" />
        </mxCell>
        <mxCell id="6OsVVCS7oPgb1nGs9ToB-43" value="" style="rounded=0;whiteSpace=wrap;html=1;fillColor=#f8cecc;strokeColor=#b85450;" parent="1" vertex="1">
          <mxGeometry x="360" y="460" width="40" height="220" as="geometry" />
        </mxCell>
        <mxCell id="6OsVVCS7oPgb1nGs9ToB-45" value="Tuesday" style="text;html=1;align=center;verticalAlign=middle;whiteSpace=wrap;rounded=0;" parent="1" vertex="1">
          <mxGeometry x="480" y="40" width="80" height="40" as="geometry" />
        </mxCell>
        <mxCell id="6OsVVCS7oPgb1nGs9ToB-46" value="0/5/6" style="text;html=1;align=center;verticalAlign=middle;whiteSpace=wrap;rounded=0;" parent="1" vertex="1">
          <mxGeometry x="410" y="70" width="60" height="20" as="geometry" />
        </mxCell>
        <mxCell id="6OsVVCS7oPgb1nGs9ToB-47" value="1/6/7" style="text;html=1;align=center;verticalAlign=middle;whiteSpace=wrap;rounded=0;" parent="1" vertex="1">
          <mxGeometry x="410" y="110" width="60" height="20" as="geometry" />
        </mxCell>
        <mxCell id="6OsVVCS7oPgb1nGs9ToB-48" value="2/7/8" style="text;html=1;align=center;verticalAlign=middle;whiteSpace=wrap;rounded=0;" parent="1" vertex="1">
          <mxGeometry x="410" y="150" width="60" height="20" as="geometry" />
        </mxCell>
        <mxCell id="6OsVVCS7oPgb1nGs9ToB-49" value="3/8/9" style="text;html=1;align=center;verticalAlign=middle;whiteSpace=wrap;rounded=0;" parent="1" vertex="1">
          <mxGeometry x="410" y="190" width="60" height="20" as="geometry" />
        </mxCell>
        <mxCell id="6OsVVCS7oPgb1nGs9ToB-50" value="4/9/10" style="text;html=1;align=center;verticalAlign=middle;whiteSpace=wrap;rounded=0;" parent="1" vertex="1">
          <mxGeometry x="410" y="230" width="60" height="20" as="geometry" />
        </mxCell>
        <mxCell id="6OsVVCS7oPgb1nGs9ToB-51" value="5/10/11" style="text;html=1;align=center;verticalAlign=middle;whiteSpace=wrap;rounded=0;" parent="1" vertex="1">
          <mxGeometry x="410" y="270" width="60" height="20" as="geometry" />
        </mxCell>
        <mxCell id="6OsVVCS7oPgb1nGs9ToB-52" value="6/11/12" style="text;html=1;align=center;verticalAlign=middle;whiteSpace=wrap;rounded=0;" parent="1" vertex="1">
          <mxGeometry x="410" y="310" width="60" height="20" as="geometry" />
        </mxCell>
        <mxCell id="6OsVVCS7oPgb1nGs9ToB-53" value="7/12/13" style="text;html=1;align=center;verticalAlign=middle;whiteSpace=wrap;rounded=0;" parent="1" vertex="1">
          <mxGeometry x="410" y="350" width="60" height="20" as="geometry" />
        </mxCell>
        <mxCell id="6OsVVCS7oPgb1nGs9ToB-54" value="8/1/14" style="text;html=1;align=center;verticalAlign=middle;whiteSpace=wrap;rounded=0;" parent="1" vertex="1">
          <mxGeometry x="410" y="390" width="60" height="20" as="geometry" />
        </mxCell>
        <mxCell id="6OsVVCS7oPgb1nGs9ToB-55" value="9/2/15" style="text;html=1;align=center;verticalAlign=middle;whiteSpace=wrap;rounded=0;" parent="1" vertex="1">
          <mxGeometry x="410" y="430" width="60" height="20" as="geometry" />
        </mxCell>
        <mxCell id="6OsVVCS7oPgb1nGs9ToB-56" value="10/3/16" style="text;html=1;align=center;verticalAlign=middle;whiteSpace=wrap;rounded=0;" parent="1" vertex="1">
          <mxGeometry x="410" y="470" width="60" height="20" as="geometry" />
        </mxCell>
        <mxCell id="6OsVVCS7oPgb1nGs9ToB-57" value="11/4/17" style="text;html=1;align=center;verticalAlign=middle;whiteSpace=wrap;rounded=0;" parent="1" vertex="1">
          <mxGeometry x="410" y="510" width="60" height="20" as="geometry" />
        </mxCell>
        <mxCell id="6OsVVCS7oPgb1nGs9ToB-58" value="12/5/18" style="text;html=1;align=center;verticalAlign=middle;whiteSpace=wrap;rounded=0;" parent="1" vertex="1">
          <mxGeometry x="410" y="550" width="60" height="20" as="geometry" />
        </mxCell>
        <mxCell id="6OsVVCS7oPgb1nGs9ToB-59" value="1/6/19" style="text;html=1;align=center;verticalAlign=middle;whiteSpace=wrap;rounded=0;" parent="1" vertex="1">
          <mxGeometry x="410" y="590" width="60" height="20" as="geometry" />
        </mxCell>
        <mxCell id="6OsVVCS7oPgb1nGs9ToB-60" value="2/7/20" style="text;html=1;align=center;verticalAlign=middle;whiteSpace=wrap;rounded=0;" parent="1" vertex="1">
          <mxGeometry x="410" y="630" width="60" height="20" as="geometry" />
        </mxCell>
        <mxCell id="6OsVVCS7oPgb1nGs9ToB-61" value="3/8/21" style="text;html=1;align=center;verticalAlign=middle;whiteSpace=wrap;rounded=0;" parent="1" vertex="1">
          <mxGeometry x="410" y="670" width="60" height="20" as="geometry" />
        </mxCell>
        <mxCell id="6OsVVCS7oPgb1nGs9ToB-62" value="4/9/22" style="text;html=1;align=center;verticalAlign=middle;whiteSpace=wrap;rounded=0;" parent="1" vertex="1">
          <mxGeometry x="410" y="710" width="60" height="20" as="geometry" />
        </mxCell>
        <mxCell id="6OsVVCS7oPgb1nGs9ToB-63" value="5/10/23" style="text;html=1;align=center;verticalAlign=middle;whiteSpace=wrap;rounded=0;" parent="1" vertex="1">
          <mxGeometry x="410" y="750" width="60" height="20" as="geometry" />
        </mxCell>
        <mxCell id="6OsVVCS7oPgb1nGs9ToB-64" value="6/11/24" style="text;html=1;align=center;verticalAlign=middle;whiteSpace=wrap;rounded=0;" parent="1" vertex="1">
          <mxGeometry x="410" y="790" width="60" height="20" as="geometry" />
        </mxCell>
        <mxCell id="6OsVVCS7oPgb1nGs9ToB-65" value="7/12/1" style="text;html=1;align=center;verticalAlign=middle;whiteSpace=wrap;rounded=0;" parent="1" vertex="1">
          <mxGeometry x="410" y="830" width="60" height="20" as="geometry" />
        </mxCell>
        <mxCell id="6OsVVCS7oPgb1nGs9ToB-66" value="8/1/2" style="text;html=1;align=center;verticalAlign=middle;whiteSpace=wrap;rounded=0;" parent="1" vertex="1">
          <mxGeometry x="410" y="870" width="60" height="20" as="geometry" />
        </mxCell>
        <mxCell id="6OsVVCS7oPgb1nGs9ToB-67" value="9/2/3" style="text;html=1;align=center;verticalAlign=middle;whiteSpace=wrap;rounded=0;" parent="1" vertex="1">
          <mxGeometry x="410" y="910" width="60" height="20" as="geometry" />
        </mxCell>
        <mxCell id="6OsVVCS7oPgb1nGs9ToB-68" value="10/3/4" style="text;html=1;align=center;verticalAlign=middle;whiteSpace=wrap;rounded=0;" parent="1" vertex="1">
          <mxGeometry x="410" y="950" width="60" height="20" as="geometry" />
        </mxCell>
        <mxCell id="6OsVVCS7oPgb1nGs9ToB-69" value="11/4/5" style="text;html=1;align=center;verticalAlign=middle;whiteSpace=wrap;rounded=0;" parent="1" vertex="1">
          <mxGeometry x="410" y="990" width="60" height="20" as="geometry" />
        </mxCell>
        <mxCell id="6OsVVCS7oPgb1nGs9ToB-70" value="12/5/6" style="text;html=1;align=center;verticalAlign=middle;whiteSpace=wrap;rounded=0;" parent="1" vertex="1">
          <mxGeometry x="410" y="1030" width="60" height="20" as="geometry" />
        </mxCell>
        <mxCell id="6OsVVCS7oPgb1nGs9ToB-72" value="" style="rounded=0;whiteSpace=wrap;html=1;fillColor=#d5e8d4;strokeColor=#82b366;" parent="1" vertex="1">
          <mxGeometry x="520" y="400" width="40" height="400" as="geometry" />
        </mxCell>
        <mxCell id="6OsVVCS7oPgb1nGs9ToB-74" value="0/5/6" style="text;html=1;align=center;verticalAlign=middle;whiteSpace=wrap;rounded=0;" parent="1" vertex="1">
          <mxGeometry x="570" y="70" width="60" height="20" as="geometry" />
        </mxCell>
        <mxCell id="6OsVVCS7oPgb1nGs9ToB-75" value="1/6/7" style="text;html=1;align=center;verticalAlign=middle;whiteSpace=wrap;rounded=0;" parent="1" vertex="1">
          <mxGeometry x="570" y="110" width="60" height="20" as="geometry" />
        </mxCell>
        <mxCell id="6OsVVCS7oPgb1nGs9ToB-76" value="2/7/8" style="text;html=1;align=center;verticalAlign=middle;whiteSpace=wrap;rounded=0;" parent="1" vertex="1">
          <mxGeometry x="570" y="150" width="60" height="20" as="geometry" />
        </mxCell>
        <mxCell id="6OsVVCS7oPgb1nGs9ToB-77" value="3/8/9" style="text;html=1;align=center;verticalAlign=middle;whiteSpace=wrap;rounded=0;" parent="1" vertex="1">
          <mxGeometry x="570" y="190" width="60" height="20" as="geometry" />
        </mxCell>
        <mxCell id="6OsVVCS7oPgb1nGs9ToB-78" value="4/9/10" style="text;html=1;align=center;verticalAlign=middle;whiteSpace=wrap;rounded=0;" parent="1" vertex="1">
          <mxGeometry x="570" y="230" width="60" height="20" as="geometry" />
        </mxCell>
        <mxCell id="6OsVVCS7oPgb1nGs9ToB-79" value="5/10/11" style="text;html=1;align=center;verticalAlign=middle;whiteSpace=wrap;rounded=0;" parent="1" vertex="1">
          <mxGeometry x="570" y="270" width="60" height="20" as="geometry" />
        </mxCell>
        <mxCell id="6OsVVCS7oPgb1nGs9ToB-80" value="6/11/12" style="text;html=1;align=center;verticalAlign=middle;whiteSpace=wrap;rounded=0;" parent="1" vertex="1">
          <mxGeometry x="570" y="310" width="60" height="20" as="geometry" />
        </mxCell>
        <mxCell id="6OsVVCS7oPgb1nGs9ToB-81" value="7/12/13" style="text;html=1;align=center;verticalAlign=middle;whiteSpace=wrap;rounded=0;" parent="1" vertex="1">
          <mxGeometry x="570" y="350" width="60" height="20" as="geometry" />
        </mxCell>
        <mxCell id="6OsVVCS7oPgb1nGs9ToB-82" value="8/1/14" style="text;html=1;align=center;verticalAlign=middle;whiteSpace=wrap;rounded=0;" parent="1" vertex="1">
          <mxGeometry x="570" y="390" width="60" height="20" as="geometry" />
        </mxCell>
        <mxCell id="6OsVVCS7oPgb1nGs9ToB-83" value="9/2/15" style="text;html=1;align=center;verticalAlign=middle;whiteSpace=wrap;rounded=0;" parent="1" vertex="1">
          <mxGeometry x="570" y="430" width="60" height="20" as="geometry" />
        </mxCell>
        <mxCell id="6OsVVCS7oPgb1nGs9ToB-84" value="10/3/16" style="text;html=1;align=center;verticalAlign=middle;whiteSpace=wrap;rounded=0;" parent="1" vertex="1">
          <mxGeometry x="570" y="470" width="60" height="20" as="geometry" />
        </mxCell>
        <mxCell id="6OsVVCS7oPgb1nGs9ToB-85" value="11/4/17" style="text;html=1;align=center;verticalAlign=middle;whiteSpace=wrap;rounded=0;" parent="1" vertex="1">
          <mxGeometry x="570" y="510" width="60" height="20" as="geometry" />
        </mxCell>
        <mxCell id="6OsVVCS7oPgb1nGs9ToB-86" value="12/5/18" style="text;html=1;align=center;verticalAlign=middle;whiteSpace=wrap;rounded=0;" parent="1" vertex="1">
          <mxGeometry x="570" y="550" width="60" height="20" as="geometry" />
        </mxCell>
        <mxCell id="6OsVVCS7oPgb1nGs9ToB-87" value="1/6/19" style="text;html=1;align=center;verticalAlign=middle;whiteSpace=wrap;rounded=0;" parent="1" vertex="1">
          <mxGeometry x="570" y="590" width="60" height="20" as="geometry" />
        </mxCell>
        <mxCell id="6OsVVCS7oPgb1nGs9ToB-88" value="2/7/20" style="text;html=1;align=center;verticalAlign=middle;whiteSpace=wrap;rounded=0;" parent="1" vertex="1">
          <mxGeometry x="570" y="630" width="60" height="20" as="geometry" />
        </mxCell>
        <mxCell id="6OsVVCS7oPgb1nGs9ToB-89" value="3/8/21" style="text;html=1;align=center;verticalAlign=middle;whiteSpace=wrap;rounded=0;" parent="1" vertex="1">
          <mxGeometry x="570" y="670" width="60" height="20" as="geometry" />
        </mxCell>
        <mxCell id="6OsVVCS7oPgb1nGs9ToB-90" value="4/9/22" style="text;html=1;align=center;verticalAlign=middle;whiteSpace=wrap;rounded=0;" parent="1" vertex="1">
          <mxGeometry x="570" y="710" width="60" height="20" as="geometry" />
        </mxCell>
        <mxCell id="6OsVVCS7oPgb1nGs9ToB-91" value="5/10/23" style="text;html=1;align=center;verticalAlign=middle;whiteSpace=wrap;rounded=0;" parent="1" vertex="1">
          <mxGeometry x="570" y="750" width="60" height="20" as="geometry" />
        </mxCell>
        <mxCell id="6OsVVCS7oPgb1nGs9ToB-92" value="6/11/24" style="text;html=1;align=center;verticalAlign=middle;whiteSpace=wrap;rounded=0;" parent="1" vertex="1">
          <mxGeometry x="570" y="790" width="60" height="20" as="geometry" />
        </mxCell>
        <mxCell id="6OsVVCS7oPgb1nGs9ToB-93" value="7/12/1" style="text;html=1;align=center;verticalAlign=middle;whiteSpace=wrap;rounded=0;" parent="1" vertex="1">
          <mxGeometry x="570" y="830" width="60" height="20" as="geometry" />
        </mxCell>
        <mxCell id="6OsVVCS7oPgb1nGs9ToB-94" value="8/1/2" style="text;html=1;align=center;verticalAlign=middle;whiteSpace=wrap;rounded=0;" parent="1" vertex="1">
          <mxGeometry x="570" y="870" width="60" height="20" as="geometry" />
        </mxCell>
        <mxCell id="6OsVVCS7oPgb1nGs9ToB-95" value="9/2/3" style="text;html=1;align=center;verticalAlign=middle;whiteSpace=wrap;rounded=0;" parent="1" vertex="1">
          <mxGeometry x="570" y="910" width="60" height="20" as="geometry" />
        </mxCell>
        <mxCell id="6OsVVCS7oPgb1nGs9ToB-96" value="10/3/4" style="text;html=1;align=center;verticalAlign=middle;whiteSpace=wrap;rounded=0;" parent="1" vertex="1">
          <mxGeometry x="570" y="950" width="60" height="20" as="geometry" />
        </mxCell>
        <mxCell id="6OsVVCS7oPgb1nGs9ToB-97" value="11/4/5" style="text;html=1;align=center;verticalAlign=middle;whiteSpace=wrap;rounded=0;" parent="1" vertex="1">
          <mxGeometry x="570" y="990" width="60" height="20" as="geometry" />
        </mxCell>
        <mxCell id="6OsVVCS7oPgb1nGs9ToB-98" value="12/5/6" style="text;html=1;align=center;verticalAlign=middle;whiteSpace=wrap;rounded=0;" parent="1" vertex="1">
          <mxGeometry x="570" y="1030" width="60" height="20" as="geometry" />
        </mxCell>
        <mxCell id="6OsVVCS7oPgb1nGs9ToB-100" value="" style="rounded=0;whiteSpace=wrap;html=1;fillColor=#d5e8d4;strokeColor=#82b366;" parent="1" vertex="1">
          <mxGeometry x="680" y="710" width="40" height="170" as="geometry" />
        </mxCell>
        <mxCell id="6OsVVCS7oPgb1nGs9ToB-101" value="Wednesday" style="text;html=1;align=center;verticalAlign=middle;whiteSpace=wrap;rounded=0;" parent="1" vertex="1">
          <mxGeometry x="640" y="40" width="120" height="40" as="geometry" />
        </mxCell>
        <mxCell id="6OsVVCS7oPgb1nGs9ToB-102" value="" style="rounded=0;whiteSpace=wrap;html=1;fillColor=#f8cecc;strokeColor=#b85450;" parent="1" vertex="1">
          <mxGeometry x="720" y="460" width="40" height="220" as="geometry" />
        </mxCell>
        <mxCell id="6OsVVCS7oPgb1nGs9ToB-104" value="0/5/6" style="text;html=1;align=center;verticalAlign=middle;whiteSpace=wrap;rounded=0;" parent="1" vertex="1">
          <mxGeometry x="770" y="70" width="60" height="20" as="geometry" />
        </mxCell>
        <mxCell id="6OsVVCS7oPgb1nGs9ToB-105" value="1/6/7" style="text;html=1;align=center;verticalAlign=middle;whiteSpace=wrap;rounded=0;" parent="1" vertex="1">
          <mxGeometry x="770" y="110" width="60" height="20" as="geometry" />
        </mxCell>
        <mxCell id="6OsVVCS7oPgb1nGs9ToB-106" value="2/7/8" style="text;html=1;align=center;verticalAlign=middle;whiteSpace=wrap;rounded=0;" parent="1" vertex="1">
          <mxGeometry x="770" y="150" width="60" height="20" as="geometry" />
        </mxCell>
        <mxCell id="6OsVVCS7oPgb1nGs9ToB-107" value="3/8/9" style="text;html=1;align=center;verticalAlign=middle;whiteSpace=wrap;rounded=0;" parent="1" vertex="1">
          <mxGeometry x="770" y="190" width="60" height="20" as="geometry" />
        </mxCell>
        <mxCell id="6OsVVCS7oPgb1nGs9ToB-108" value="4/9/10" style="text;html=1;align=center;verticalAlign=middle;whiteSpace=wrap;rounded=0;" parent="1" vertex="1">
          <mxGeometry x="770" y="230" width="60" height="20" as="geometry" />
        </mxCell>
        <mxCell id="6OsVVCS7oPgb1nGs9ToB-109" value="5/10/11" style="text;html=1;align=center;verticalAlign=middle;whiteSpace=wrap;rounded=0;" parent="1" vertex="1">
          <mxGeometry x="770" y="270" width="60" height="20" as="geometry" />
        </mxCell>
        <mxCell id="6OsVVCS7oPgb1nGs9ToB-110" value="6/11/12" style="text;html=1;align=center;verticalAlign=middle;whiteSpace=wrap;rounded=0;" parent="1" vertex="1">
          <mxGeometry x="770" y="310" width="60" height="20" as="geometry" />
        </mxCell>
        <mxCell id="6OsVVCS7oPgb1nGs9ToB-111" value="7/12/13" style="text;html=1;align=center;verticalAlign=middle;whiteSpace=wrap;rounded=0;" parent="1" vertex="1">
          <mxGeometry x="770" y="350" width="60" height="20" as="geometry" />
        </mxCell>
        <mxCell id="6OsVVCS7oPgb1nGs9ToB-112" value="8/1/14" style="text;html=1;align=center;verticalAlign=middle;whiteSpace=wrap;rounded=0;" parent="1" vertex="1">
          <mxGeometry x="770" y="390" width="60" height="20" as="geometry" />
        </mxCell>
        <mxCell id="6OsVVCS7oPgb1nGs9ToB-113" value="9/2/15" style="text;html=1;align=center;verticalAlign=middle;whiteSpace=wrap;rounded=0;" parent="1" vertex="1">
          <mxGeometry x="770" y="430" width="60" height="20" as="geometry" />
        </mxCell>
        <mxCell id="6OsVVCS7oPgb1nGs9ToB-114" value="10/3/16" style="text;html=1;align=center;verticalAlign=middle;whiteSpace=wrap;rounded=0;" parent="1" vertex="1">
          <mxGeometry x="770" y="470" width="60" height="20" as="geometry" />
        </mxCell>
        <mxCell id="6OsVVCS7oPgb1nGs9ToB-115" value="11/4/17" style="text;html=1;align=center;verticalAlign=middle;whiteSpace=wrap;rounded=0;" parent="1" vertex="1">
          <mxGeometry x="770" y="510" width="60" height="20" as="geometry" />
        </mxCell>
        <mxCell id="6OsVVCS7oPgb1nGs9ToB-116" value="12/5/18" style="text;html=1;align=center;verticalAlign=middle;whiteSpace=wrap;rounded=0;" parent="1" vertex="1">
          <mxGeometry x="770" y="550" width="60" height="20" as="geometry" />
        </mxCell>
        <mxCell id="6OsVVCS7oPgb1nGs9ToB-117" value="1/6/19" style="text;html=1;align=center;verticalAlign=middle;whiteSpace=wrap;rounded=0;" parent="1" vertex="1">
          <mxGeometry x="770" y="590" width="60" height="20" as="geometry" />
        </mxCell>
        <mxCell id="6OsVVCS7oPgb1nGs9ToB-118" value="2/7/20" style="text;html=1;align=center;verticalAlign=middle;whiteSpace=wrap;rounded=0;" parent="1" vertex="1">
          <mxGeometry x="770" y="630" width="60" height="20" as="geometry" />
        </mxCell>
        <mxCell id="6OsVVCS7oPgb1nGs9ToB-119" value="3/8/21" style="text;html=1;align=center;verticalAlign=middle;whiteSpace=wrap;rounded=0;" parent="1" vertex="1">
          <mxGeometry x="770" y="670" width="60" height="20" as="geometry" />
        </mxCell>
        <mxCell id="6OsVVCS7oPgb1nGs9ToB-120" value="4/9/22" style="text;html=1;align=center;verticalAlign=middle;whiteSpace=wrap;rounded=0;" parent="1" vertex="1">
          <mxGeometry x="770" y="710" width="60" height="20" as="geometry" />
        </mxCell>
        <mxCell id="6OsVVCS7oPgb1nGs9ToB-121" value="5/10/23" style="text;html=1;align=center;verticalAlign=middle;whiteSpace=wrap;rounded=0;" parent="1" vertex="1">
          <mxGeometry x="770" y="750" width="60" height="20" as="geometry" />
        </mxCell>
        <mxCell id="6OsVVCS7oPgb1nGs9ToB-122" value="6/11/24" style="text;html=1;align=center;verticalAlign=middle;whiteSpace=wrap;rounded=0;" parent="1" vertex="1">
          <mxGeometry x="770" y="790" width="60" height="20" as="geometry" />
        </mxCell>
        <mxCell id="6OsVVCS7oPgb1nGs9ToB-123" value="7/12/1" style="text;html=1;align=center;verticalAlign=middle;whiteSpace=wrap;rounded=0;" parent="1" vertex="1">
          <mxGeometry x="770" y="830" width="60" height="20" as="geometry" />
        </mxCell>
        <mxCell id="6OsVVCS7oPgb1nGs9ToB-124" value="8/1/2" style="text;html=1;align=center;verticalAlign=middle;whiteSpace=wrap;rounded=0;" parent="1" vertex="1">
          <mxGeometry x="770" y="870" width="60" height="20" as="geometry" />
        </mxCell>
        <mxCell id="6OsVVCS7oPgb1nGs9ToB-125" value="9/2/3" style="text;html=1;align=center;verticalAlign=middle;whiteSpace=wrap;rounded=0;" parent="1" vertex="1">
          <mxGeometry x="770" y="910" width="60" height="20" as="geometry" />
        </mxCell>
        <mxCell id="6OsVVCS7oPgb1nGs9ToB-126" value="10/3/4" style="text;html=1;align=center;verticalAlign=middle;whiteSpace=wrap;rounded=0;" parent="1" vertex="1">
          <mxGeometry x="770" y="950" width="60" height="20" as="geometry" />
        </mxCell>
        <mxCell id="6OsVVCS7oPgb1nGs9ToB-127" value="11/4/5" style="text;html=1;align=center;verticalAlign=middle;whiteSpace=wrap;rounded=0;" parent="1" vertex="1">
          <mxGeometry x="770" y="990" width="60" height="20" as="geometry" />
        </mxCell>
        <mxCell id="6OsVVCS7oPgb1nGs9ToB-128" value="12/5/6" style="text;html=1;align=center;verticalAlign=middle;whiteSpace=wrap;rounded=0;" parent="1" vertex="1">
          <mxGeometry x="770" y="1030" width="60" height="20" as="geometry" />
        </mxCell>
        <mxCell id="6OsVVCS7oPgb1nGs9ToB-130" value="" style="rounded=0;whiteSpace=wrap;html=1;fillColor=#d5e8d4;strokeColor=#82b366;" parent="1" vertex="1">
          <mxGeometry x="880" y="600" width="40" height="280" as="geometry" />
        </mxCell>
        <mxCell id="6OsVVCS7oPgb1nGs9ToB-131" value="Thursday" style="text;html=1;align=center;verticalAlign=middle;whiteSpace=wrap;rounded=0;" parent="1" vertex="1">
          <mxGeometry x="840" y="40" width="80" height="40" as="geometry" />
        </mxCell>
        <mxCell id="6OsVVCS7oPgb1nGs9ToB-133" value="0/5/6" style="text;html=1;align=center;verticalAlign=middle;whiteSpace=wrap;rounded=0;" parent="1" vertex="1">
          <mxGeometry x="930" y="70" width="60" height="20" as="geometry" />
        </mxCell>
        <mxCell id="6OsVVCS7oPgb1nGs9ToB-134" value="1/6/7" style="text;html=1;align=center;verticalAlign=middle;whiteSpace=wrap;rounded=0;" parent="1" vertex="1">
          <mxGeometry x="930" y="110" width="60" height="20" as="geometry" />
        </mxCell>
        <mxCell id="6OsVVCS7oPgb1nGs9ToB-135" value="2/7/8" style="text;html=1;align=center;verticalAlign=middle;whiteSpace=wrap;rounded=0;" parent="1" vertex="1">
          <mxGeometry x="930" y="150" width="60" height="20" as="geometry" />
        </mxCell>
        <mxCell id="6OsVVCS7oPgb1nGs9ToB-136" value="3/8/9" style="text;html=1;align=center;verticalAlign=middle;whiteSpace=wrap;rounded=0;" parent="1" vertex="1">
          <mxGeometry x="930" y="190" width="60" height="20" as="geometry" />
        </mxCell>
        <mxCell id="6OsVVCS7oPgb1nGs9ToB-137" value="4/9/10" style="text;html=1;align=center;verticalAlign=middle;whiteSpace=wrap;rounded=0;" parent="1" vertex="1">
          <mxGeometry x="930" y="230" width="60" height="20" as="geometry" />
        </mxCell>
        <mxCell id="6OsVVCS7oPgb1nGs9ToB-138" value="5/10/11" style="text;html=1;align=center;verticalAlign=middle;whiteSpace=wrap;rounded=0;" parent="1" vertex="1">
          <mxGeometry x="930" y="270" width="60" height="20" as="geometry" />
        </mxCell>
        <mxCell id="6OsVVCS7oPgb1nGs9ToB-139" value="6/11/12" style="text;html=1;align=center;verticalAlign=middle;whiteSpace=wrap;rounded=0;" parent="1" vertex="1">
          <mxGeometry x="930" y="310" width="60" height="20" as="geometry" />
        </mxCell>
        <mxCell id="6OsVVCS7oPgb1nGs9ToB-140" value="7/12/13" style="text;html=1;align=center;verticalAlign=middle;whiteSpace=wrap;rounded=0;" parent="1" vertex="1">
          <mxGeometry x="930" y="350" width="60" height="20" as="geometry" />
        </mxCell>
        <mxCell id="6OsVVCS7oPgb1nGs9ToB-141" value="8/1/14" style="text;html=1;align=center;verticalAlign=middle;whiteSpace=wrap;rounded=0;" parent="1" vertex="1">
          <mxGeometry x="930" y="390" width="60" height="20" as="geometry" />
        </mxCell>
        <mxCell id="6OsVVCS7oPgb1nGs9ToB-142" value="9/2/15" style="text;html=1;align=center;verticalAlign=middle;whiteSpace=wrap;rounded=0;" parent="1" vertex="1">
          <mxGeometry x="930" y="430" width="60" height="20" as="geometry" />
        </mxCell>
        <mxCell id="6OsVVCS7oPgb1nGs9ToB-143" value="10/3/16" style="text;html=1;align=center;verticalAlign=middle;whiteSpace=wrap;rounded=0;" parent="1" vertex="1">
          <mxGeometry x="930" y="470" width="60" height="20" as="geometry" />
        </mxCell>
        <mxCell id="6OsVVCS7oPgb1nGs9ToB-144" value="11/4/17" style="text;html=1;align=center;verticalAlign=middle;whiteSpace=wrap;rounded=0;" parent="1" vertex="1">
          <mxGeometry x="930" y="510" width="60" height="20" as="geometry" />
        </mxCell>
        <mxCell id="6OsVVCS7oPgb1nGs9ToB-145" value="12/5/18" style="text;html=1;align=center;verticalAlign=middle;whiteSpace=wrap;rounded=0;" parent="1" vertex="1">
          <mxGeometry x="930" y="550" width="60" height="20" as="geometry" />
        </mxCell>
        <mxCell id="6OsVVCS7oPgb1nGs9ToB-146" value="1/6/19" style="text;html=1;align=center;verticalAlign=middle;whiteSpace=wrap;rounded=0;" parent="1" vertex="1">
          <mxGeometry x="930" y="590" width="60" height="20" as="geometry" />
        </mxCell>
        <mxCell id="6OsVVCS7oPgb1nGs9ToB-147" value="2/7/20" style="text;html=1;align=center;verticalAlign=middle;whiteSpace=wrap;rounded=0;" parent="1" vertex="1">
          <mxGeometry x="930" y="630" width="60" height="20" as="geometry" />
        </mxCell>
        <mxCell id="6OsVVCS7oPgb1nGs9ToB-148" value="3/8/21" style="text;html=1;align=center;verticalAlign=middle;whiteSpace=wrap;rounded=0;" parent="1" vertex="1">
          <mxGeometry x="930" y="670" width="60" height="20" as="geometry" />
        </mxCell>
        <mxCell id="6OsVVCS7oPgb1nGs9ToB-149" value="4/9/22" style="text;html=1;align=center;verticalAlign=middle;whiteSpace=wrap;rounded=0;" parent="1" vertex="1">
          <mxGeometry x="930" y="710" width="60" height="20" as="geometry" />
        </mxCell>
        <mxCell id="6OsVVCS7oPgb1nGs9ToB-150" value="5/10/23" style="text;html=1;align=center;verticalAlign=middle;whiteSpace=wrap;rounded=0;" parent="1" vertex="1">
          <mxGeometry x="930" y="750" width="60" height="20" as="geometry" />
        </mxCell>
        <mxCell id="6OsVVCS7oPgb1nGs9ToB-151" value="6/11/24" style="text;html=1;align=center;verticalAlign=middle;whiteSpace=wrap;rounded=0;" parent="1" vertex="1">
          <mxGeometry x="930" y="790" width="60" height="20" as="geometry" />
        </mxCell>
        <mxCell id="6OsVVCS7oPgb1nGs9ToB-152" value="7/12/1" style="text;html=1;align=center;verticalAlign=middle;whiteSpace=wrap;rounded=0;" parent="1" vertex="1">
          <mxGeometry x="930" y="830" width="60" height="20" as="geometry" />
        </mxCell>
        <mxCell id="6OsVVCS7oPgb1nGs9ToB-153" value="8/1/2" style="text;html=1;align=center;verticalAlign=middle;whiteSpace=wrap;rounded=0;" parent="1" vertex="1">
          <mxGeometry x="930" y="870" width="60" height="20" as="geometry" />
        </mxCell>
        <mxCell id="6OsVVCS7oPgb1nGs9ToB-154" value="9/2/3" style="text;html=1;align=center;verticalAlign=middle;whiteSpace=wrap;rounded=0;" parent="1" vertex="1">
          <mxGeometry x="930" y="910" width="60" height="20" as="geometry" />
        </mxCell>
        <mxCell id="6OsVVCS7oPgb1nGs9ToB-155" value="10/3/4" style="text;html=1;align=center;verticalAlign=middle;whiteSpace=wrap;rounded=0;" parent="1" vertex="1">
          <mxGeometry x="930" y="950" width="60" height="20" as="geometry" />
        </mxCell>
        <mxCell id="6OsVVCS7oPgb1nGs9ToB-156" value="11/4/5" style="text;html=1;align=center;verticalAlign=middle;whiteSpace=wrap;rounded=0;" parent="1" vertex="1">
          <mxGeometry x="930" y="990" width="60" height="20" as="geometry" />
        </mxCell>
        <mxCell id="6OsVVCS7oPgb1nGs9ToB-157" value="12/5/6" style="text;html=1;align=center;verticalAlign=middle;whiteSpace=wrap;rounded=0;" parent="1" vertex="1">
          <mxGeometry x="930" y="1030" width="60" height="20" as="geometry" />
        </mxCell>
        <mxCell id="6OsVVCS7oPgb1nGs9ToB-160" value="Friday" style="text;html=1;align=center;verticalAlign=middle;whiteSpace=wrap;rounded=0;" parent="1" vertex="1">
          <mxGeometry x="1000" y="40" width="80" height="40" as="geometry" />
        </mxCell>
        <mxCell id="6OsVVCS7oPgb1nGs9ToB-161" value="" style="rounded=0;whiteSpace=wrap;html=1;fillColor=#f8cecc;strokeColor=#b85450;" parent="1" vertex="1">
          <mxGeometry x="1040" y="440" width="40" height="320" as="geometry" />
        </mxCell>
        <mxCell id="hZrlgHfd4oLx-FCl0MOs-1" value="Jam Working" style="text;html=1;align=center;verticalAlign=middle;whiteSpace=wrap;rounded=0;" parent="1" vertex="1">
          <mxGeometry x="200" y="40" width="80" height="40" as="geometry" />
        </mxCell>
      </root>
    </mxGraphModel>
  </diagram>
</mxfile>
